<?xml version="1.0" standalone="no"?>
<!DOCTYPE svg PUBLIC "-//W3C//DTD SVG 20010904//EN"
 "http://www.w3.org/TR/2001/REC-SVG-20010904/DTD/svg10.dtd">
<svg version="1.0" xmlns="http://www.w3.org/2000/svg"
 width="1280.000000pt" height="1280.000000pt" viewBox="0 0 1280.000000 1280.000000"
 preserveAspectRatio="xMidYMid meet">
<g transform="translate(0.000000,1280.000000) scale(0.100000,-0.100000)"
fill="#000000" stroke="none">
<path d="M7755 12790 c-170 -4 -865 -11 -1544 -15 -679 -4 -1245 -11 -1258
-14 -20 -5 -6 -14 74 -45 460 -181 868 -543 1215 -1081 108 -167 194 -320 763
-1368 534 -984 547 -1009 529 -1027 -10 -10 -179 -120 -374 -245 -195 -125
-361 -233 -368 -240 -17 -16 300 -22 1783 -34 798 -7 1073 -6 1081 3 18 18
1525 2508 1521 2513 -2 2 -198 -98 -435 -222 -237 -124 -437 -225 -444 -225
-7 0 -161 273 -342 608 -425 784 -395 733 -480 837 -218 271 -560 477 -896
541 -111 21 -342 25 -825 14z"/>
<path d="M4228 12644 c-181 -33 -376 -132 -540 -276 -14 -12 -194 -282 -399
-598 -205 -316 -534 -824 -731 -1129 -198 -304 -358 -554 -356 -556 4 -4 2628
-1559 2694 -1596 l51 -29 726 1184 c400 651 727 1191 727 1200 0 20 -50 121
-142 285 -420 751 -977 1300 -1493 1470 -179 59 -371 75 -537 45z"/>
<path d="M10183 7806 c-733 -447 -1342 -820 -1354 -828 -23 -14 -20 -20 635
-1234 362 -670 663 -1225 669 -1233 16 -19 602 -10 787 13 817 103 1395 373
1683 786 92 134 143 264 176 452 23 128 26 187 12 251 -5 23 -14 78 -21 122
-11 77 -31 118 -550 1140 -295 583 -570 1124 -609 1203 -40 78 -78 142 -84
142 -7 0 -611 -366 -1344 -814z"/>
<path d="M1630 8588 c-591 -4 -1176 -11 -1299 -15 l-224 -8 403 -315 c222
-173 407 -322 413 -330 7 -12 -93 -212 -413 -825 -233 -446 -433 -837 -445
-870 -28 -74 -65 -245 -65 -300 0 -59 44 -259 74 -340 131 -343 484 -712 848
-885 223 -105 481 -166 843 -200 164 -16 669 -32 752 -25 l72 7 562 919 c309
505 568 919 574 919 7 0 191 -97 410 -215 219 -119 401 -214 405 -213 4 2
-320 611 -721 1353 l-729 1350 -192 1 c-106 0 -677 -3 -1268 -8z"/>
<path d="M7447 3915 l-708 -1277 274 -501 c150 -276 469 -859 708 -1296 l434
-794 7 44 c3 24 11 220 17 434 6 215 14 422 17 462 l6 72 787 4 c769 3 788 4
876 25 317 77 588 229 791 444 93 98 134 160 253 381 218 404 1583 2961 1589
2975 3 8 -39 -22 -94 -67 -317 -263 -690 -429 -1144 -510 -315 -56 -280 -55
-1712 -58 l-1327 -4 -5 23 c-3 13 -15 217 -26 453 -12 237 -25 438 -29 448 -5
14 -198 -327 -714 -1258z"/>
<path d="M265 4900 c10 -19 191 -354 402 -745 212 -390 608 -1123 881 -1629
l497 -919 85 -86 c209 -214 516 -354 917 -420 267 -45 313 -46 1533 -46 l1165
0 3 1596 2 1596 -567 7 c-503 5 -1024 9 -3003 21 -318 2 -546 7 -595 14 -298
43 -486 98 -723 212 -211 101 -342 189 -531 359 -74 66 -82 71 -66 40z"/>
</g>
</svg>
